<?xml version="1.0" encoding="UTF-8"?><svg xmlns="http://www.w3.org/2000/svg" xmlns:xlink="http://www.w3.org/1999/xlink" fill-opacity="1" color-rendering="auto" color-interpolation="auto" text-rendering="auto" stroke="black" stroke-linecap="square" width="2525" stroke-miterlimit="10" shape-rendering="auto" stroke-opacity="1" fill="black" stroke-dasharray="none" font-weight="normal" stroke-width="1" height="1089" font-family="'Dialog'" font-style="normal" stroke-linejoin="miter" font-size="12" stroke-dashoffset="0" image-rendering="auto">
  <!--Generated by ySVG 2.5-->
  <defs id="genericDefs"/>
  <g>
    <defs id="defs1">
      <clipPath clipPathUnits="userSpaceOnUse" id="clipPath1">
        <path d="M0 0 L2525 0 L2525 1089 L0 1089 L0 0 Z"/>
      </clipPath>
      <clipPath clipPathUnits="userSpaceOnUse" id="clipPath2">
        <path d="M-1702 217 L823 217 L823 1306 L-1702 1306 L-1702 217 Z"/>
      </clipPath>
    </defs>
    <g fill="white" text-rendering="geometricPrecision" shape-rendering="geometricPrecision" transform="translate(1702,-217)" stroke="white">
      <rect x="-1702" width="2525" height="1089" y="217" clip-path="url(#clipPath2)" stroke="none"/>
    </g>
    <g font-size="32" stroke-linecap="butt" transform="matrix(1,0,0,1,1702,-217)" text-rendering="geometricPrecision" shape-rendering="geometricPrecision" font-weight="bold" stroke-miterlimit="1.45">
      <text x="-878.127" xml:space="preserve" y="271.1699" clip-path="url(#clipPath2)" stroke="none">System level</text>
      <rect x="-884.1269" y="235.4667" clip-path="url(#clipPath2)" fill="none" width="734.7969" rx="4" ry="4" height="1055.2396" stroke-width="5"/>
      <text x="-52.0091" xml:space="preserve" y="268.7003" clip-path="url(#clipPath2)" stroke="none">Host/Aggregate system level</text>
      <rect x="-58.0091" y="232.9972" clip-path="url(#clipPath2)" fill="none" width="865.1094" rx="4" ry="4" height="1055.2396" stroke-width="5"/>
    </g>
    <g fill="rgb(204,255,255)" text-rendering="geometricPrecision" shape-rendering="geometricPrecision" transform="matrix(1,0,0,1,1702,-217)" stroke="rgb(204,255,255)">
      <rect x="-798.375" y="587.559" clip-path="url(#clipPath2)" width="594.7839" rx="4" ry="4" height="68" stroke="none"/>
    </g>
    <g font-size="32" stroke-linecap="butt" transform="matrix(1,0,0,1,1702,-217)" text-rendering="geometricPrecision" shape-rendering="geometricPrecision" font-weight="bold" stroke-miterlimit="1.45">
      <text x="-757.1784" xml:space="preserve" y="632.6371" clip-path="url(#clipPath2)" stroke="none">sys.keystone.control.cluster</text>
      <rect x="-798.375" y="587.559" clip-path="url(#clipPath2)" fill="none" width="594.7839" rx="4" ry="4" height="68" stroke-width="5"/>
    </g>
    <g fill="rgb(204,255,255)" text-rendering="geometricPrecision" shape-rendering="geometricPrecision" transform="matrix(1,0,0,1,1702,-217)" stroke="rgb(204,255,255)">
      <rect x="-798.375" y="489.559" clip-path="url(#clipPath2)" width="594.7839" rx="4" ry="4" height="68" stroke="none"/>
    </g>
    <g font-size="32" stroke-linecap="butt" transform="matrix(1,0,0,1,1702,-217)" text-rendering="geometricPrecision" shape-rendering="geometricPrecision" font-weight="bold" stroke-miterlimit="1.45">
      <text x="-731.405" xml:space="preserve" y="534.6371" clip-path="url(#clipPath2)" stroke="none">sys.cinder.control.cluster</text>
      <rect x="-798.375" y="489.559" clip-path="url(#clipPath2)" fill="none" width="594.7839" rx="4" ry="4" height="68" stroke-width="5"/>
    </g>
    <g fill="rgb(204,255,255)" text-rendering="geometricPrecision" shape-rendering="geometricPrecision" transform="matrix(1,0,0,1,1702,-217)" stroke="rgb(204,255,255)">
      <rect x="-1607.75" y="416.7628" clip-path="url(#clipPath2)" width="557.0625" rx="4" ry="4" height="68" stroke="none"/>
    </g>
    <g font-size="32" stroke-linecap="butt" transform="matrix(1,0,0,1,1702,-217)" text-rendering="geometricPrecision" shape-rendering="geometricPrecision" font-weight="bold" stroke-miterlimit="1.45">
      <text x="-1559.6016" xml:space="preserve" y="461.8409" clip-path="url(#clipPath2)" stroke="none">svc.cinder.control.cluster</text>
      <rect x="-1607.75" y="416.7628" clip-path="url(#clipPath2)" fill="none" width="557.0625" rx="4" ry="4" height="68" stroke-width="5"/>
    </g>
    <g fill="rgb(204,255,255)" text-rendering="geometricPrecision" shape-rendering="geometricPrecision" transform="matrix(1,0,0,1,1702,-217)" stroke="rgb(204,255,255)">
      <rect x="74.6719" y="551.0565" clip-path="url(#clipPath2)" width="668.8854" rx="4" ry="4" height="68" stroke="none"/>
    </g>
    <g font-size="32" stroke-linecap="butt" transform="matrix(1,0,0,1,1702,-217)" text-rendering="geometricPrecision" shape-rendering="geometricPrecision" font-weight="bold" stroke-miterlimit="1.45">
      <text x="114.5208" xml:space="preserve" y="596.1346" clip-path="url(#clipPath2)" stroke="none">sys.openstack.control.tcp_vpc16</text>
      <rect x="74.6719" y="551.0565" clip-path="url(#clipPath2)" fill="none" width="668.8854" rx="4" ry="4" height="68" stroke-width="5"/>
    </g>
    <g fill="rgb(204,255,255)" text-rendering="geometricPrecision" shape-rendering="geometricPrecision" transform="matrix(1,0,0,1,1702,-217)" stroke="rgb(204,255,255)">
      <rect x="-798.375" y="794.1509" clip-path="url(#clipPath2)" width="594.7839" rx="4" ry="4" height="68" stroke="none"/>
    </g>
    <g font-size="32" stroke-linecap="butt" transform="matrix(1,0,0,1,1702,-217)" text-rendering="geometricPrecision" shape-rendering="geometricPrecision" font-weight="bold" stroke-miterlimit="1.45">
      <text x="-731.9284" xml:space="preserve" y="839.2291" clip-path="url(#clipPath2)" stroke="none">sys.collectd.client.carbon</text>
      <rect x="-798.375" y="794.1509" clip-path="url(#clipPath2)" fill="none" width="594.7839" rx="4" ry="4" height="68" stroke-width="5"/>
    </g>
    <g fill="rgb(204,255,255)" text-rendering="geometricPrecision" shape-rendering="geometricPrecision" transform="matrix(1,0,0,1,1702,-217)" stroke="rgb(204,255,255)">
      <rect x="-1607.75" y="836.2484" clip-path="url(#clipPath2)" width="557.0625" rx="4" ry="4" height="68" stroke="none"/>
    </g>
    <g font-size="32" stroke-linecap="butt" transform="matrix(1,0,0,1,1702,-217)" text-rendering="geometricPrecision" shape-rendering="geometricPrecision" font-weight="bold" stroke-miterlimit="1.45">
      <text x="-1560.125" xml:space="preserve" y="881.3265" clip-path="url(#clipPath2)" stroke="none">svc.collectd.client.carbon</text>
      <rect x="-1607.75" y="836.2484" clip-path="url(#clipPath2)" fill="none" width="557.0625" rx="4" ry="4" height="68" stroke-width="5"/>
    </g>
    <g fill="rgb(204,255,255)" text-rendering="geometricPrecision" shape-rendering="geometricPrecision" transform="matrix(1,0,0,1,1702,-217)" stroke="rgb(204,255,255)">
      <rect x="229.0208" y="762.9844" clip-path="url(#clipPath2)" width="360.1875" rx="4" ry="4" height="68" stroke="none"/>
    </g>
    <g font-size="32" stroke-linecap="butt" transform="matrix(1,0,0,1,1702,-217)" text-rendering="geometricPrecision" shape-rendering="geometricPrecision" font-weight="bold" stroke-miterlimit="1.45">
      <text x="266.4896" xml:space="preserve" y="808.0626" clip-path="url(#clipPath2)" stroke="none">Controller by ID</text>
      <rect x="229.0208" y="762.9844" clip-path="url(#clipPath2)" fill="none" width="360.1875" rx="4" ry="4" height="68" stroke-width="5"/>
    </g>
    <g fill="rgb(204,255,255)" text-rendering="geometricPrecision" shape-rendering="geometricPrecision" transform="matrix(1,0,0,1,1702,-217)" stroke="rgb(204,255,255)">
      <rect x="-1607.75" y="514.7628" clip-path="url(#clipPath2)" width="557.0625" rx="4" ry="4" height="68" stroke="none"/>
    </g>
    <g font-size="32" stroke-linecap="butt" transform="matrix(1,0,0,1,1702,-217)" text-rendering="geometricPrecision" shape-rendering="geometricPrecision" font-weight="bold" stroke-miterlimit="1.45">
      <text x="-1550.1641" xml:space="preserve" y="559.8409" clip-path="url(#clipPath2)" stroke="none">svc.mysql.server.cluster</text>
      <rect x="-1607.75" y="514.7628" clip-path="url(#clipPath2)" fill="none" width="557.0625" rx="4" ry="4" height="68" stroke-width="5"/>
    </g>
    <g fill="rgb(204,255,255)" text-rendering="geometricPrecision" shape-rendering="geometricPrecision" transform="matrix(1,0,0,1,1702,-217)" stroke="rgb(204,255,255)">
      <rect x="-1607.75" y="621.9247" clip-path="url(#clipPath2)" width="557.0625" rx="4" ry="4" height="68" stroke="none"/>
    </g>
    <g font-size="32" stroke-linecap="butt" transform="matrix(1,0,0,1,1702,-217)" text-rendering="geometricPrecision" shape-rendering="geometricPrecision" font-weight="bold" stroke-miterlimit="1.45">
      <text x="-1585.375" xml:space="preserve" y="667.0028" clip-path="url(#clipPath2)" stroke="none">svc.keystone.control.cluster</text>
      <rect x="-1607.75" y="621.9247" clip-path="url(#clipPath2)" fill="none" width="557.0625" rx="4" ry="4" height="68" stroke-width="5"/>
    </g>
    <g fill="rgb(204,255,255)" text-rendering="geometricPrecision" shape-rendering="geometricPrecision" transform="matrix(1,0,0,1,1702,-217)" stroke="rgb(204,255,255)">
      <rect x="-1607.75" y="1148.5721" clip-path="url(#clipPath2)" width="557.0625" rx="4" ry="4" height="68" stroke="none"/>
    </g>
    <g font-size="32" stroke-linecap="butt" transform="matrix(1,0,0,1,1702,-217)" text-rendering="geometricPrecision" shape-rendering="geometricPrecision" font-weight="bold" stroke-miterlimit="1.45">
      <text x="-1556.5469" xml:space="preserve" y="1193.6503" clip-path="url(#clipPath2)" stroke="none">svc.openssh.client.single</text>
      <rect x="-1607.75" y="1148.5721" clip-path="url(#clipPath2)" fill="none" width="557.0625" rx="4" ry="4" height="68" stroke-width="5"/>
    </g>
    <g fill="rgb(204,255,255)" text-rendering="geometricPrecision" shape-rendering="geometricPrecision" transform="matrix(1,0,0,1,1702,-217)" stroke="rgb(204,255,255)">
      <rect x="-1607.75" y="729.0865" clip-path="url(#clipPath2)" width="557.0625" rx="4" ry="4" height="68" stroke="none"/>
    </g>
    <g font-size="32" stroke-linecap="butt" transform="matrix(1,0,0,1,1702,-217)" text-rendering="geometricPrecision" shape-rendering="geometricPrecision" font-weight="bold" stroke-miterlimit="1.45">
      <text x="-1579.4531" xml:space="preserve" y="774.1647" clip-path="url(#clipPath2)" stroke="none">svc.rabbitmq.server.cluster</text>
      <rect x="-1607.75" y="729.0865" clip-path="url(#clipPath2)" fill="none" width="557.0625" rx="4" ry="4" height="68" stroke-width="5"/>
    </g>
    <g fill="rgb(204,255,255)" text-rendering="geometricPrecision" shape-rendering="geometricPrecision" transform="matrix(1,0,0,1,1702,-217)" stroke="rgb(204,255,255)">
      <rect x="-1607.75" y="1050.5721" clip-path="url(#clipPath2)" width="557.0625" rx="4" ry="4" height="68" stroke="none"/>
    </g>
    <g font-size="32" stroke-linecap="butt" transform="matrix(1,0,0,1,1702,-217)" text-rendering="geometricPrecision" shape-rendering="geometricPrecision" font-weight="bold" stroke-miterlimit="1.45">
      <text x="-1563.6406" xml:space="preserve" y="1095.6503" clip-path="url(#clipPath2)" stroke="none">svc.openssh.server.single</text>
      <rect x="-1607.75" y="1050.5721" clip-path="url(#clipPath2)" fill="none" width="557.0625" rx="4" ry="4" height="68" stroke-width="5"/>
    </g>
    <g fill="rgb(204,255,255)" text-rendering="geometricPrecision" shape-rendering="geometricPrecision" transform="matrix(1,0,0,1,1702,-217)" stroke="rgb(204,255,255)">
      <rect x="-1607.75" y="943.4103" clip-path="url(#clipPath2)" width="557.0625" rx="4" ry="4" height="68" stroke="none"/>
    </g>
    <g font-size="32" stroke-linecap="butt" transform="matrix(1,0,0,1,1702,-217)" text-rendering="geometricPrecision" shape-rendering="geometricPrecision" font-weight="bold" stroke-miterlimit="1.45">
      <text x="-1511.9141" xml:space="preserve" y="988.4884" clip-path="url(#clipPath2)" stroke="none">svc.ntp.client.single</text>
      <rect x="-1607.75" y="943.4103" clip-path="url(#clipPath2)" fill="none" width="557.0625" rx="4" ry="4" height="68" stroke-width="5"/>
    </g>
    <g fill="rgb(204,255,255)" text-rendering="geometricPrecision" shape-rendering="geometricPrecision" transform="matrix(1,0,0,1,1702,-217)" stroke="rgb(204,255,255)">
      <rect x="-1607.75" y="318.7628" clip-path="url(#clipPath2)" width="557.0625" rx="4" ry="4" height="68" stroke="none"/>
    </g>
    <g font-size="32" stroke-linecap="butt" transform="matrix(1,0,0,1,1702,-217)" text-rendering="geometricPrecision" shape-rendering="geometricPrecision" font-weight="bold" stroke-miterlimit="1.45">
      <text x="-1555.4375" xml:space="preserve" y="363.8409" clip-path="url(#clipPath2)" stroke="none">svc.haproxy.proxy.single</text>
      <rect x="-1607.75" y="318.7628" clip-path="url(#clipPath2)" fill="none" width="557.0625" rx="4" ry="4" height="68" stroke-width="5"/>
      <text x="-1680.8073" xml:space="preserve" y="268.7003" clip-path="url(#clipPath2)" stroke="none">Service level</text>
      <rect x="-1686.8073" y="232.9972" clip-path="url(#clipPath2)" fill="none" width="711.3594" rx="4" ry="4" height="1055.2396" stroke-width="5"/>
    </g>
    <g fill="rgb(204,255,255)" text-rendering="geometricPrecision" shape-rendering="geometricPrecision" transform="matrix(1,0,0,1,1702,-217)" stroke="rgb(204,255,255)">
      <rect x="-801.9531" y="1050.5721" clip-path="url(#clipPath2)" width="598.362" rx="4" ry="4" height="68" stroke="none"/>
    </g>
    <g font-size="32" stroke-linecap="butt" transform="matrix(1,0,0,1,1702,-217)" text-rendering="geometricPrecision" shape-rendering="geometricPrecision" font-weight="bold" stroke-miterlimit="1.45">
      <text x="-730.6237" xml:space="preserve" y="1095.6503" clip-path="url(#clipPath2)" stroke="none">sys.linux.system.vmware</text>
      <rect x="-801.9531" y="1050.5721" clip-path="url(#clipPath2)" fill="none" width="598.362" rx="4" ry="4" height="68" stroke-width="5"/>
    </g>
    <g fill="rgb(204,255,255)" text-rendering="geometricPrecision" shape-rendering="geometricPrecision" transform="matrix(1,0,0,1,1702,-217)" stroke="rgb(204,255,255)">
      <rect x="-798.375" y="696.1509" clip-path="url(#clipPath2)" width="594.7839" rx="4" ry="4" height="68" stroke="none"/>
    </g>
    <g font-size="32" stroke-linecap="butt" transform="matrix(1,0,0,1,1702,-217)" text-rendering="geometricPrecision" shape-rendering="geometricPrecision" font-weight="bold" stroke-miterlimit="1.45">
      <text x="-765.155" xml:space="preserve" y="741.2291" clip-path="url(#clipPath2)" stroke="none">sys.ssh.server.team.cloudlab</text>
      <rect x="-798.375" y="696.1509" clip-path="url(#clipPath2)" fill="none" width="594.7839" rx="4" ry="4" height="68" stroke-width="5"/>
      <path fill="none" d="M-1050.655 450.7628 L-798.3869 534.5328" stroke-width="5" clip-path="url(#clipPath2)"/>
      <path fill="none" d="M-203.5759 523.5665 L74.6639 585.0565" stroke-width="5" clip-path="url(#clipPath2)"/>
      <path fill="none" d="M-203.5759 621.5545 L74.6639 585.0565" stroke-width="5" clip-path="url(#clipPath2)"/>
      <path fill="none" d="M-1050.6705 870.2433 L-798.3871 828.1561" stroke-width="5" clip-path="url(#clipPath2)"/>
      <path fill="none" d="M409.1146 619.0757 L409.1146 762.975" stroke-width="5" clip-path="url(#clipPath2)"/>
      <path fill="none" d="M-197.2348 728.5839 L228.9989 796.9844" stroke-width="5" clip-path="url(#clipPath2)"/>
      <path fill="none" d="M-203.5946 828.149 L228.9989 796.9844" stroke-width="5" clip-path="url(#clipPath2)"/>
      <path fill="none" d="M-1050.655 548.7628 L-798.4007 531.5" stroke-width="5" clip-path="url(#clipPath2)"/>
      <path fill="none" d="M-1050.655 548.7628 L-798.376 621.55" stroke-width="5" clip-path="url(#clipPath2)"/>
      <path fill="none" d="M-1050.655 655.9247 L-798.376 621.5632" stroke-width="5" clip-path="url(#clipPath2)"/>
      <path fill="none" d="M-1050.6805 768.6308 L-798.3827 529.5194" stroke-width="5" clip-path="url(#clipPath2)"/>
      <path fill="none" d="M-1050.6851 1182.5602 L-801.9603 1084.5721" stroke-width="5" clip-path="url(#clipPath2)"/>
      <path fill="none" d="M-1050.6709 977.4233 L-801.9603 1084.5721" stroke-width="5" clip-path="url(#clipPath2)"/>
      <path fill="none" d="M-1050.6709 1084.5721 L-801.9603 1084.5721" stroke-width="5" clip-path="url(#clipPath2)"/>
      <path fill="none" d="M-203.5663 1084.5546 L228.9989 796.9844" stroke-width="5" clip-path="url(#clipPath2)"/>
    </g>
  </g>
</svg>
